# xmcd
# 
# Track frame offsets:
#     150
#     18223
#     32206
#     41914
#     60227
#     69027
#     83542
#     108165
#     127031
#     141526
# 
# Disc length: 2062
# 
# Revision: 0
# Processed by: cddbd v1.5.2PL0 Copyright (c) Steve Scherf et al.
# Submitted via: fre:ac v1.0.31
# 
DISCID=7d080c0a
DTITLE=Various Artist - Irish and Celtic Favorites (Disk 3)
DYEAR=2006
DGENRE=Celtic
TTITLE0=Irish Band - I'll Take You Home Again, Kathleen
TTITLE1=Spailpin feat Column MacOireachtaigh - The Beggarman
TTITLE2=The Blarney Lads - Muirsheen Durkin
TTITLE3=Spailpin feat Column MacOireachtaigh - Ramblin' Irishman
TTITLE4=Irish Ceili Band - Roscabury
TTITLE5=The Blarney Lads - Peggy Gordon
TTITLE6=Spailpin feat Column MacOireachtaigh - Arthur McBride
TTITLE7=The Kilkenny Brothers - Seven Druken Nights
TTITLE8=The Blarney Lads - I'm a Rover
TTITLE9=Tommy Scott - Going Home
EXTD=
EXTT0=
EXTT1=
EXTT2=
EXTT3=
EXTT4=
EXTT5=
EXTT6=
EXTT7=
EXTT8=
EXTT9=
PLAYORDER=
